<svg id="Layer_1" data-name="Layer 1" xmlns="http://www.w3.org/2000/svg" viewBox="0 0 538.39 94.64"><defs><style>.cls-1{fill:#ebebeb;}.cls-2{fill:#f1592b;}</style></defs><title>Logo</title><path class="cls-1" d="M212.43,76.9a37,37,0,0,1-33.15,20.67C161.21,97.57,143,87,143,66.11V34.39c0-20.8,18.2-31.46,36.66-31.46,11.31,0,25,4.81,32.37,21.19l-19,7.67c-6.24-11.44-26.78-8.84-26.78,2.6V66.11c0,11.05,20.8,14.17,25.87,1.43Z" transform="translate(-5.35 -2.92)"/><path class="cls-1" d="M218,34.51c0-21.19,19-31.59,38.09-31.59s38.22,10.53,38.22,31.59V66c0,21.06-19,31.59-38.09,31.59S218,87,218,66V34.51ZM241.26,66c0,6.76,7.54,10,15,10S271,72.61,271,66V34.51c0-7.15-7.67-10.4-15.21-10.4-7.28,0-14.56,3.64-14.56,10.4V66Z" transform="translate(-5.35 -2.92)"/><path class="cls-1" d="M303.92,4.22h23.27l19.37,45,19.5-45h23.27v92h-23.4l0.13-26.52,1.43-18.59L366.72,51,354.63,82.62h-16L326.28,51l-0.65.13,1.56,18.59V96.27H303.92v-92Z" transform="translate(-5.35 -2.92)"/><path class="cls-1" d="M424.42,40.37h37.31V60.52H424.42V74.3H465v22H400.89v-92H465V26.06H424.42v14.3Z" transform="translate(-5.35 -2.92)"/><path class="cls-1" d="M519.31,26.19V96.27H495.78V26.19H471.34V4.09h72.41v22.1H519.31Z" transform="translate(-5.35 -2.92)"/><circle class="cls-2" cx="45.69" cy="47" r="45.69"/><polygon class="cls-2" points="45.69 1.3 125.42 1.3 85.06 70.19 45.69 1.3"/></svg>