<?xml version="1.0" encoding="utf-8"?>
<!-- Generator: Adobe Illustrator 19.2.1, SVG Export Plug-In . SVG Version: 6.00 Build 0)  -->
<svg version="1.1" id="Layer_1" xmlns="http://www.w3.org/2000/svg" xmlns:xlink="http://www.w3.org/1999/xlink" x="0px" y="0px"
	 viewBox="0 0 400.7 94.6" style="enable-background:new 0 0 400.7 94.6;" xml:space="preserve">
<style type="text/css">
	.st0{fill:#EBEBEB;}
</style>
<title>Logo</title>
<path class="st0" d="M69.4,74c-6.2,12.6-19.1,20.7-33.1,20.7C18.2,94.7,0,84.1,0,63.2V31.5C0,10.7,18.2,0,36.7,0
	C48,0,61.7,4.8,69,21.2l-19,7.7c-6.2-11.4-26.8-8.8-26.8,2.6v31.7c0,11.1,20.8,14.2,25.9,1.4L69.4,74z"/>
<path class="st0" d="M75,31.6C75,10.4,94,0,113.1,0s38.2,10.5,38.2,31.6v31.5c0,21.1-19,31.6-38.1,31.6S75,84.1,75,63.1V31.6z
	 M98.3,63.1c0,6.8,7.5,10,15,10s14.7-3.4,14.7-10V31.6c0-7.1-7.7-10.4-15.2-10.4c-7.3,0-14.6,3.6-14.6,10.4L98.3,63.1L98.3,63.1z"/>
<path class="st0" d="M160.9,1.3h23.3l19.4,45l19.5-45h23.3v92h-23.4l0.1-26.5l1.4-18.6l-0.8-0.1l-12.1,31.6h-16l-12.4-31.6l-0.6,0.1
	l1.6,18.6v26.5h-23.3V1.3L160.9,1.3z"/>
<path class="st0" d="M281.4,37.4h37.3v20.2h-37.3v13.8H322v22h-64.1v-92H322v21.8h-40.6V37.4L281.4,37.4z"/>
<path class="st0" d="M376.3,23.3v70.1h-23.5V23.3h-24.4V1.2h72.4v22.1H376.3z"/>
</svg>
